<svg id="euaylJ0KFcP1" xmlns="http://www.w3.org/2000/svg" xmlns:xlink="http://www.w3.org/1999/xlink" viewBox="0 0 600 600" shape-rendering="geometricPrecision" text-rendering="geometricPrecision" project-id="4ba32e473feb4497b2cb2b708ba036f8" export-id="32ddeaae798941eab3d13fb31c9c325a" cached="false"><g><path d="" fill="none" stroke="#3f5787" stroke-width="1.2"/></g><g transform="matrix(2.249978 0 0 2.189751-325.231197-307.576884)"><line x1="-0.913752" y1="-50.738966" x2="0.913752" y2="69.261034" transform="translate(200.18953 249.261034)" fill="none" stroke="#3f5787" stroke-width="3" stroke-linejoin="bevel"/><line x1="-49.448359" y1="0" x2="70.551641" y2="0" transform="translate(250.55165 198.522068)" fill="none" stroke="#3f5787" stroke-width="3" stroke-linejoin="bevel"/><line x1="0" y1="-50.738966" x2="0" y2="69.261034" transform="translate(321.103282 249.261034)" fill="none" stroke="#3f5787" stroke-width="3" stroke-linejoin="bevel"/><line x1="50.362111" y1="0" x2="-50.362111" y2="0" transform="matrix(1.191372 0 0 1 261.103282 318.522068)" fill="none" stroke="#3f5787" stroke-width="3" stroke-linejoin="bevel"/><line x1="0" y1="-23.54683" x2="0" y2="26.45317" transform="translate(261.103282 222.068899)" fill="none" stroke="#3f5787" stroke-width="3" stroke-linejoin="bevel"/><line x1="0" y1="35" x2="0" y2="-34.999999" transform="translate(289.77373 283.522069)" fill="none" stroke="#3f5787" stroke-width="3" stroke-linejoin="bevel"/><line x1="35.89317" y1="0" x2="-30.439769" y2="0" transform="matrix(.678396 0 0 1 264.76816 248.52207)" fill="none" stroke="#3f5787" stroke-width="3" stroke-linejoin="bevel"/><line x1="-30" y1="0" x2="30" y2="0" transform="translate(244.781642 318.522069)" fill="none" stroke="#3f5787" stroke-width="3" stroke-linejoin="bevel"/><line x1="0" y1="34.999999" x2="0" y2="-34.999999" transform="translate(244.781642 283.522069)" fill="none" stroke="#3f5787" stroke-width="3" stroke-linejoin="bevel"/></g></svg>
